<svg id="svg" version="1.1" xmlns="http://www.w3.org/2000/svg" xmlns:xlink="http://www.w3.org/1999/xlink" width="400" height="333.6442371752165" viewBox="0, 0, 400,333.6442371752165"><g id="svgg"><path id="path0" d="M106.329 69.584 C 92.090 70.389,79.905 73.235,73.085 77.350 L 71.686 78.194 71.686 164.880 C 71.686 212.557,71.764 251.566,71.860 251.566 C 71.956 251.566,73.605 251.270,75.524 250.908 C 111.966 244.040,155.140 247.634,186.698 260.163 L 189.652 261.336 189.824 175.530 C 189.986 94.420,189.970 89.704,189.534 89.369 C 188.308 88.425,177.601 83.295,173.351 81.614 C 151.652 73.035,126.177 68.462,106.329 69.584 M282.478 69.468 C 263.277 70.876,244.254 75.098,227.854 81.593 C 223.359 83.373,213.164 88.249,211.925 89.211 L 211.325 89.676 211.392 175.504 L 211.459 261.332 214.390 260.170 C 243.524 248.615,280.169 244.759,316.322 249.444 C 320.162 249.942,327.319 251.106,328.755 251.467 L 329.381 251.624 329.314 164.786 L 329.247 77.948 326.042 76.333 C 316.545 71.549,296.718 68.424,282.478 69.468 M45.145 97.264 C 42.345 97.852,40.322 99.422,39.132 101.932 L 38.375 103.531 38.375 194.555 C 38.374 294.313,38.260 287.214,39.904 289.168 C 40.299 289.637,41.166 290.273,41.830 290.580 L 43.038 291.139 113.924 291.221 C 165.147 291.279,185.193 291.220,186.190 291.006 C 193.169 289.509,192.916 279.315,185.846 277.173 C 151.828 266.865,116.737 265.159,65.157 271.306 C 61.492 271.742,57.805 272.173,56.962 272.264 L 55.430 272.428 55.430 188.361 C 55.430 96.069,55.552 102.885,53.849 100.533 C 52.001 97.983,48.316 96.599,45.145 97.264 M352.693 97.269 C 349.984 97.659,347.703 99.408,346.468 102.042 L 345.769 103.531 345.701 187.941 C 345.633 272.130,345.632 272.352,345.100 272.352 C 344.807 272.352,341.121 271.938,336.907 271.432 C 291.582 265.989,264.410 266.310,233.578 272.654 C 226.017 274.210,214.108 277.330,213.243 277.981 C 208.324 281.686,208.868 289.041,214.195 290.856 C 215.726 291.377,355.456 291.504,357.872 290.986 C 360.209 290.485,361.767 289.018,362.492 286.635 C 363.133 284.529,362.961 104.455,362.316 102.601 C 361.032 98.912,356.960 96.655,352.693 97.269 " stroke="none" fill="#fbfbfb" fill-rule="evenodd"></path><path id="path1" d="M59.027 0.441 C 23.096 3.420,5.846 19.020,0.872 53.031 C -0.230 60.570,0.187 274.140,1.320 282.079 C 5.833 313.711,23.224 329.659,57.029 333.166 C 61.940 333.675,338.327 333.675,343.238 333.166 C 378.973 329.459,396.766 311.440,399.737 275.949 C 400.289 269.355,399.951 57.091,399.382 53.196 C 394.672 20.936,378.749 5.154,346.569 0.855 C 343.664 0.466,63.580 0.064,59.027 0.441 M123.135 69.697 C 147.098 71.939,174.970 80.055,188.894 88.844 L 190.007 89.547 190.007 175.591 L 190.007 261.636 186.356 260.191 C 154.759 247.687,109.261 244.089,74.137 251.316 C 72.756 251.600,71.580 251.832,71.523 251.832 C 71.466 251.832,71.419 212.804,71.419 165.104 L 71.419 78.375 72.285 77.724 C 80.227 71.757,104.390 67.943,123.135 69.697 M302.332 70.054 C 313.949 71.456,323.351 74.085,328.272 77.306 L 329.647 78.206 329.647 165.037 C 329.647 247.608,329.624 251.861,329.181 251.730 C 326.547 250.950,315.538 249.374,307.662 248.648 C 274.118 245.559,240.940 249.713,214.318 260.334 C 212.813 260.934,211.464 261.426,211.320 261.426 C 211.150 261.426,211.059 231.429,211.059 175.495 L 211.059 89.564 212.974 88.446 C 235.993 75.002,275.669 66.836,302.332 70.054 M50.688 97.764 C 52.416 98.600,54.020 100.239,54.856 102.024 L 55.563 103.531 55.632 187.934 L 55.700 272.338 56.431 272.210 C 58.757 271.803,76.642 269.800,83.678 269.159 C 122.543 265.616,151.732 267.673,182.634 276.133 C 187.361 277.427,187.727 277.574,188.927 278.652 C 192.091 281.497,192.316 286.159,189.442 289.278 C 187.409 291.483,194.800 291.293,114.324 291.212 L 42.505 291.139 41.439 290.588 C 39.918 289.801,38.763 287.972,38.384 285.751 C 38.154 284.401,38.097 261.079,38.159 193.604 L 38.241 103.264 39.155 101.579 C 41.382 97.471,46.551 95.761,50.688 97.764 M357.543 97.576 C 359.613 98.350,361.610 100.347,362.384 102.417 L 362.958 103.951 362.958 194.491 C 362.958 275.219,362.913 285.203,362.547 286.620 C 362.064 288.484,361.077 289.819,359.613 290.588 L 358.561 291.139 286.875 291.217 C 209.265 291.302,213.917 291.393,212.089 289.743 C 207.713 285.789,209.503 278.843,215.365 277.029 C 244.683 267.954,279.176 265.453,320.187 269.429 C 327.322 270.121,342.525 271.852,344.634 272.212 L 345.364 272.337 345.434 188.067 L 345.503 103.797 346.250 102.199 C 348.313 97.781,352.982 95.869,357.543 97.576 " stroke="none" fill="#040404" fill-rule="evenodd"></path><path id="path2" d="M108.664 69.476 C 108.995 69.539,109.475 69.537,109.730 69.470 C 109.985 69.404,109.714 69.351,109.127 69.354 C 108.541 69.357,108.333 69.412,108.664 69.476 M291.742 69.476 C 292.073 69.539,292.553 69.537,292.808 69.470 C 293.063 69.404,292.791 69.351,292.205 69.354 C 291.619 69.357,291.410 69.412,291.742 69.476 M329.512 164.957 C 329.512 212.665,329.543 232.182,329.580 208.328 C 329.618 184.474,329.618 145.440,329.580 121.586 C 329.543 97.732,329.512 117.249,329.512 164.957 M211.136 91.006 C 211.138 91.739,211.189 92.007,211.251 91.602 C 211.312 91.197,211.310 90.597,211.247 90.269 C 211.184 89.942,211.134 90.273,211.136 91.006 M38.240 194.137 C 38.240 243.531,38.270 263.698,38.308 238.952 C 38.345 214.207,38.345 173.794,38.308 149.146 C 38.270 124.497,38.240 144.744,38.240 194.137 M55.561 189.074 C 55.561 234.950,55.592 253.757,55.630 230.868 C 55.667 207.978,55.667 170.443,55.630 147.457 C 55.592 124.470,55.561 143.198,55.561 189.074 M189.871 202.398 C 189.871 234.937,189.902 248.208,189.940 231.891 C 189.978 215.573,189.978 188.951,189.940 172.730 C 189.902 156.509,189.871 169.860,189.871 202.398 M105.730 247.756 C 106.059 247.820,106.599 247.820,106.929 247.756 C 107.258 247.693,106.989 247.641,106.329 247.641 C 105.670 247.641,105.400 247.693,105.730 247.756 M123.718 247.752 C 123.974 247.819,124.394 247.819,124.650 247.752 C 124.907 247.685,124.697 247.630,124.184 247.630 C 123.671 247.630,123.461 247.685,123.718 247.752 M276.149 247.752 C 276.406 247.819,276.825 247.819,277.082 247.752 C 277.338 247.685,277.129 247.630,276.616 247.630 C 276.103 247.630,275.893 247.685,276.149 247.752 M295.206 247.757 C 295.538 247.821,296.017 247.818,296.272 247.751 C 296.527 247.685,296.256 247.633,295.670 247.635 C 295.083 247.638,294.875 247.693,295.206 247.757 M108.265 267.746 C 108.670 267.807,109.270 267.806,109.597 267.743 C 109.925 267.679,109.594 267.629,108.861 267.631 C 108.128 267.633,107.860 267.685,108.265 267.746 M125.050 267.746 C 125.453 267.807,126.113 267.807,126.516 267.746 C 126.919 267.685,126.589 267.635,125.783 267.635 C 124.977 267.635,124.647 267.685,125.050 267.746 M275.087 267.746 C 275.492 267.807,276.092 267.806,276.419 267.743 C 276.747 267.679,276.416 267.629,275.683 267.631 C 274.950 267.633,274.682 267.685,275.087 267.746 M291.472 267.743 C 291.802 267.807,292.342 267.807,292.672 267.743 C 293.001 267.680,292.732 267.628,292.072 267.628 C 291.412 267.628,291.143 267.680,291.472 267.743 " stroke="none" fill="#848484" fill-rule="evenodd"></path><path id="path3" d="M71.551 165.090 C 71.551 212.871,71.581 232.379,71.619 208.439 C 71.656 184.500,71.656 145.406,71.619 121.564 C 71.581 97.722,71.551 117.308,71.551 165.090 M345.501 188.807 C 345.501 234.830,345.532 253.618,345.570 230.558 C 345.607 207.498,345.607 169.843,345.570 146.880 C 345.532 123.918,345.501 142.785,345.501 188.807 M211.190 210.393 C 211.190 238.534,211.221 250.007,211.259 235.888 C 211.297 221.769,211.297 198.745,211.259 184.722 C 211.221 170.700,211.190 182.252,211.190 210.393 M108.531 247.760 C 108.936 247.821,109.536 247.819,109.864 247.756 C 110.192 247.693,109.860 247.643,109.127 247.645 C 108.394 247.647,108.126 247.698,108.531 247.760 M120.658 247.761 C 121.137 247.821,121.856 247.820,122.257 247.759 C 122.657 247.698,122.265 247.649,121.386 247.651 C 120.506 247.652,120.179 247.702,120.658 247.761 M278.281 247.759 C 278.684 247.820,279.344 247.820,279.747 247.759 C 280.150 247.698,279.820 247.648,279.014 247.648 C 278.208 247.648,277.878 247.698,278.281 247.759 M292.272 247.756 C 292.602 247.820,293.141 247.820,293.471 247.756 C 293.801 247.693,293.531 247.641,292.871 247.641 C 292.212 247.641,291.942 247.693,292.272 247.756 M105.466 267.743 C 105.798 267.807,106.277 267.805,106.532 267.738 C 106.787 267.671,106.516 267.619,105.929 267.622 C 105.343 267.625,105.135 267.680,105.466 267.743 M127.981 267.739 C 128.238 267.806,128.658 267.806,128.914 267.739 C 129.171 267.672,128.961 267.617,128.448 267.617 C 127.935 267.617,127.725 267.672,127.981 267.739 M272.418 267.739 C 272.675 267.806,273.095 267.806,273.351 267.739 C 273.608 267.672,273.398 267.617,272.885 267.617 C 272.372 267.617,272.162 267.672,272.418 267.739 M294.270 267.739 C 294.527 267.806,294.947 267.806,295.203 267.739 C 295.460 267.672,295.250 267.617,294.737 267.617 C 294.224 267.617,294.014 267.672,294.270 267.739 " stroke="none" fill="#4f4f4f" fill-rule="evenodd"></path><path id="path4" d="M211.188 125.783 C 211.188 144.324,211.220 151.909,211.259 142.638 C 211.298 133.368,211.298 118.198,211.259 108.927 C 211.220 99.657,211.188 107.242,211.188 125.783 " stroke="none" fill="#7c7c7c" fill-rule="evenodd"></path></g></svg>